<svg width="210" height="60.52" xmlns="http://www.w3.org/2000/svg" viewBox="0 0 210 60.52">
<path style="fill:#A09E9C;" d="M210,58.104c0,1.306-1.052,2.357-2.358,2.357c-1.306,0-2.358-1.051-2.358-2.357v-2.408
	c0-1.305,1.052-2.357,2.358-2.357c0.679,0,1.57,0.305,2.011,0.873c0.068,0.085,0.102,0.178,0.102,0.263
	c0,0.237-0.212,0.432-0.442,0.432c-0.11,0-0.229-0.051-0.322-0.17l-0.068-0.067c-0.34-0.322-0.814-0.483-1.281-0.483
	c-0.831,0-1.51,0.678-1.51,1.509v2.408c0,0.831,0.678,1.509,1.51,1.509c0.832,0,1.511-0.679,1.511-1.509v-0.746h-1.443
	c-0.28,0-0.425-0.212-0.425-0.424c0-0.212,0.144-0.424,0.425-0.424h1.866c0.229,0,0.424,0.195,0.424,0.424V58.104z"/>
<path style="fill:#A09E9C;" d="M202.48,59.952c0,0.313-0.178,0.492-0.382,0.492c-0.144,0-0.288-0.085-0.407-0.271l-2.91-4.807v4.587
	c0,0.279-0.212,0.424-0.424,0.424c-0.212,0-0.425-0.144-0.425-0.424v-6.104c0-0.313,0.178-0.492,0.382-0.492
	c0.144,0,0.288,0.085,0.408,0.271l2.91,4.807v-4.587c0-0.279,0.212-0.424,0.424-0.424c0.212,0,0.424,0.144,0.424,0.424V59.952z"/>
<path style="fill:#A09E9C;" d="M195.044,58.104c0,1.306-1.052,2.357-2.358,2.357c-1.306,0-2.359-1.051-2.359-2.357v-4.256
	c0-0.279,0.212-0.424,0.425-0.424c0.212,0,0.424,0.144,0.424,0.424v4.256c0,0.831,0.679,1.509,1.511,1.509s1.51-0.679,1.51-1.509
	v-4.256c0-0.279,0.212-0.424,0.425-0.424c0.212,0,0.424,0.144,0.424,0.424V58.104z"/>
<path style="fill:#A09E9C;" d="M187.439,60.376h-3.181c-0.229,0-0.425-0.195-0.425-0.424v-6.104c0-0.279,0.212-0.424,0.425-0.424
	c0.212,0,0.424,0.144,0.424,0.424v5.68h2.757c0.28,0,0.425,0.212,0.425,0.424C187.864,60.164,187.719,60.376,187.439,60.376z"/>
<path style="fill:#A09E9C;" d="M180.843,60.384c-0.118,0-0.237-0.05-0.331-0.178l-2.256-3.027l-0.951,1.094v1.679
	c0,0.279-0.212,0.424-0.424,0.424c-0.212,0-0.425-0.144-0.425-0.424v-6.104c0-0.279,0.212-0.424,0.425-0.424
	c0.212,0,0.424,0.144,0.424,0.424v3.137l2.961-3.417c0.093-0.111,0.203-0.153,0.314-0.153c0.229,0,0.441,0.203,0.441,0.432
	c0,0.093-0.034,0.186-0.11,0.28l-2.079,2.391l2.359,3.179c0.067,0.084,0.093,0.178,0.093,0.254
	C181.285,60.19,181.064,60.384,180.843,60.384z"/>
<path style="fill:#A09E9C;" d="M173.62,59.587c0,0-0.051,0.068-0.144,0.153c-0.5,0.475-1.179,0.721-1.866,0.721
	c-1.306,0-2.358-1.051-2.358-2.357v-2.408c0-1.305,1.052-2.357,2.358-2.357c0.679,0,1.57,0.305,2.011,0.873
	c0.068,0.085,0.102,0.178,0.102,0.263c0,0.237-0.212,0.432-0.442,0.432c-0.11,0-0.229-0.051-0.322-0.17l-0.068-0.067
	c-0.34-0.322-0.814-0.483-1.281-0.483c-0.831,0-1.51,0.678-1.51,1.509v2.408c0,0.831,0.678,1.509,1.51,1.509
	c0.458,0,1.044-0.178,1.349-0.551c0.093-0.11,0.203-0.161,0.322-0.161c0.229,0,0.459,0.195,0.459,0.424
	C173.739,59.41,173.705,59.503,173.62,59.587z"/>
<path style="fill:#A09E9C;" d="M166.364,60.376h-2.715c-0.28,0-0.425-0.212-0.425-0.424c0-0.212,0.144-0.424,0.425-0.424h0.933
	v-5.256h-0.933c-0.28,0-0.425-0.212-0.425-0.424s0.144-0.424,0.425-0.424h2.715c0.28,0,0.424,0.212,0.424,0.424
	s-0.144,0.424-0.424,0.424h-0.934v5.256h0.934c0.28,0,0.424,0.212,0.424,0.424C166.788,60.164,166.643,60.376,166.364,60.376z"/>
<path style="fill:#A09E9C;" d="M161.082,53.958l-1.697,6.172c-0.076,0.254-0.246,0.39-0.407,0.39c-0.169,0-0.34-0.127-0.408-0.381
	l-1.468-4.824l-1.459,4.824c-0.076,0.254-0.237,0.381-0.408,0.381c-0.169,0-0.34-0.136-0.407-0.39l-1.697-6.172
	c-0.009-0.042-0.017-0.085-0.017-0.127c0-0.254,0.22-0.407,0.441-0.407c0.17,0,0.331,0.093,0.399,0.313l1.307,4.756l1.442-4.764
	c0.068-0.255,0.237-0.382,0.399-0.382c0.17,0,0.331,0.127,0.408,0.382l1.443,4.764l1.306-4.756c0.059-0.22,0.229-0.313,0.399-0.313
	c0.22,0,0.441,0.152,0.441,0.407C161.099,53.873,161.091,53.916,161.082,53.958z"/>
<path style="fill:#A09E9C;" d="M150.822,54.272h-1.612v5.68c0,0.279-0.212,0.424-0.425,0.424c-0.212,0-0.424-0.144-0.424-0.424
	v-5.68h-1.612c-0.28,0-0.425-0.212-0.425-0.424s0.144-0.424,0.425-0.424h4.072c0.28,0,0.424,0.212,0.424,0.424
	S151.102,54.272,150.822,54.272z"/>
<path style="fill:#A09E9C;" d="M143.946,59.952c0,0.313-0.178,0.492-0.382,0.492c-0.144,0-0.288-0.085-0.407-0.271l-2.91-4.807
	v4.587c0,0.279-0.212,0.424-0.424,0.424c-0.212,0-0.425-0.144-0.425-0.424v-6.104c0-0.313,0.178-0.492,0.382-0.492
	c0.144,0,0.288,0.085,0.408,0.271l2.91,4.807v-4.587c0-0.279,0.212-0.424,0.424-0.424c0.212,0,0.424,0.144,0.424,0.424V59.952z"/>
<path style="fill:#A09E9C;" d="M136.257,60.376h-3.181c-0.229,0-0.425-0.195-0.425-0.424v-6.104c0-0.229,0.195-0.424,0.425-0.424
	h3.181c0.28,0,0.425,0.212,0.425,0.424s-0.144,0.424-0.425,0.424h-2.757v2.051h2.503c0.28,0,0.425,0.212,0.425,0.424
	c0,0.212-0.144,0.424-0.425,0.424h-2.503v2.357h2.757c0.28,0,0.425,0.212,0.425,0.424C136.681,60.164,136.537,60.376,136.257,60.376
	z"/>
<path style="fill:#A09E9C;" d="M127.913,60.376h-1.764c-0.229,0-0.425-0.195-0.425-0.424v-6.104c0-0.229,0.195-0.424,0.425-0.424
	h1.764c1.044,0,1.892,0.848,1.892,1.882c0,0.568-0.314,1.17-0.848,1.45c0.475,0.279,0.976,0.915,0.976,1.602
	C129.933,59.477,129.025,60.376,127.913,60.376z M127.913,56.349c0.577,0,1.044-0.466,1.044-1.034c0-0.577-0.467-1.042-1.044-1.042
	h-1.34v2.077H127.913z M127.913,57.197h-1.34v2.331h1.34c0.645,0,1.171-0.526,1.171-1.161
	C129.084,57.722,128.558,57.197,127.913,57.197z"/>
<path style="fill:#A09E9C;" d="M122.582,60.376h-3.181c-0.229,0-0.425-0.195-0.425-0.424v-6.104c0-0.229,0.195-0.424,0.425-0.424
	h3.181c0.28,0,0.425,0.212,0.425,0.424s-0.144,0.424-0.425,0.424h-2.757v2.051h2.503c0.28,0,0.425,0.212,0.425,0.424
	c0,0.212-0.144,0.424-0.425,0.424h-2.503v2.357h2.757c0.28,0,0.425,0.212,0.425,0.424C123.006,60.164,122.862,60.376,122.582,60.376
	z"/>
<path style="fill:#A09E9C;" d="M116.495,53.958l-1.697,6.172c-0.076,0.254-0.246,0.39-0.407,0.39c-0.169,0-0.34-0.127-0.408-0.381
	l-1.468-4.824l-1.459,4.824c-0.077,0.254-0.237,0.381-0.408,0.381c-0.169,0-0.34-0.136-0.407-0.39l-1.697-6.172
	c-0.008-0.042-0.017-0.085-0.017-0.127c0-0.254,0.22-0.407,0.441-0.407c0.17,0,0.331,0.093,0.399,0.313l1.307,4.756l1.442-4.764
	c0.068-0.255,0.237-0.382,0.399-0.382c0.17,0,0.331,0.127,0.408,0.382l1.443,4.764l1.306-4.756c0.059-0.22,0.229-0.313,0.399-0.313
	c0.22,0,0.441,0.152,0.441,0.407C116.512,53.873,116.503,53.916,116.495,53.958z"/>
<path style="fill:#0D64AA;" d="M208.766,44.155c-0.617,0-1.233-0.431-1.233-1.233V21.968c0-4.931-4.009-8.937-8.944-8.937
	c-4.934,0-8.943,4.006-8.943,8.937v20.954c0,0.802-0.617,1.233-1.234,1.233s-1.234-0.431-1.234-1.233V21.968
	c0-6.287,5.119-11.402,11.411-11.402S210,15.681,210,21.968v20.954C210,43.724,209.383,44.155,208.766,44.155z"/>
<path style="fill:#0D64AA;" d="M167.445,44.771c-6.291,0-11.411-5.115-11.411-11.402V21.968c0-6.287,5.119-11.402,11.411-11.402
	s11.41,5.115,11.41,11.402v11.401C178.855,39.656,173.736,44.771,167.445,44.771z M176.388,21.968c0-4.931-4.009-8.937-8.943-8.937
	c-4.935,0-8.944,4.006-8.944,8.937v11.401c0,4.931,4.009,8.937,8.944,8.937c4.934,0,8.943-4.006,8.943-8.937V21.968z"/>
<path style="fill:#0D64AA;" d="M145.18,12.415c0-0.802,0.617-1.233,1.234-1.233c0.617,0,1.234,0.431,1.234,1.233v30.507
	c0,0.802-0.617,1.233-1.234,1.233c-0.617,0-1.234-0.431-1.234-1.233V12.415z"/>
<path style="fill:#0D64AA;" d="M126.863,44.771c-2.96,0-7.093-1.294-8.881-4.005c-0.186-0.247-0.247-0.493-0.247-0.678
	c0-0.679,0.617-1.233,1.295-1.233c0.678,0,0.925,0.493,1.296,0.924c1.665,1.725,4.194,2.527,6.537,2.527
	c4.996,0,8.388-2.958,8.388-6.656c0-9.368-17.331-6.04-17.331-16.888c0-5.361,4.688-8.196,9.375-8.196
	c3.268,0,7.093,1.725,8.881,4.56c0.185,0.247,0.247,0.493,0.247,0.678c0,0.678-0.678,1.233-1.295,1.233
	c-0.74,0-0.987-0.555-1.419-1.048c-1.604-1.849-3.886-2.958-6.414-2.958c-3.886,0-6.909,2.219-6.909,5.732
	c0,8.382,17.332,5.239,17.332,16.888C137.719,41.197,132.722,44.771,126.863,44.771z"/>
<path style="fill:#0069A4;" d="M107.806,12.415c0-0.802,0.617-1.233,1.234-1.233c0.617,0,1.234,0.431,1.234,1.233v30.507
	c0,0.802-0.617,1.233-1.234,1.233c-0.617,0-1.234-0.431-1.234-1.233V12.415z"/>
<path style="fill:#0D64AA;" d="M89.737,43.353c-0.247,0.679-0.74,0.986-1.172,0.986s-0.863-0.308-1.172-0.986L75.675,12.846
	c-0.309-0.863,0.308-1.664,1.233-1.664c0.432,0,0.863,0.247,1.11,0.802l10.547,27.487l10.547-27.487
	c0.247-0.555,0.678-0.802,1.11-0.802c0.925,0,1.542,0.802,1.233,1.664L89.737,43.353z"/>
<path style="fill:#A09E9C;" d="M9.592,6.483V0h12.677v30.195c0,4.26,3.523,7.693,7.699,7.693c4.235,0,7.848-3.2,7.848-7.723V11.215
	h7.163l0.003,18.98c-0.034,4.319,3.479,7.693,7.798,7.693c4.157,0,7.822-3.374,7.822-7.693v-18.98h7.12l-0.001,18.98
	c0,9.273-6.995,14.4-13.906,14.4c-5.265,0-9.317-1.649-12.299-6.274c-3.094,4.604-7.073,6.274-12.338,6.274
	c-6.911,0-14.058-5.127-14.058-14.4V6.486L9.592,6.483L9.592,6.483z"/>
<polygon style="fill:#A09E9C;" points="0,11.215 7.405,11.215 7.405,44.11 0,44.11 0,11.215 "/>
</svg>
